<!--?xml version="1.0" standalone="no"?-->
              <svg id="sw-js-blob-svg" viewBox="0 0 100 100" xmlns="http://www.w3.org/2000/svg" version="1.1">
                    <defs> 
                        <linearGradient id="sw-gradient" x1="0" x2="1" y1="1" y2="0">
                            <stop id="stop1" stop-color="rgba(176.302, 220.457, 232.926, 1)" offset="0%"></stop>
                            <stop id="stop2" stop-color="rgba(45.469, 93.002, 201.051, 1)" offset="100%"></stop>
                        </linearGradient>
                    </defs>
                <path fill="url(#sw-gradient)" d="M22.8,-28.4C29.1,-21.8,33.4,-14.3,35.6,-5.7C37.8,2.8,37.9,12.4,33.7,19.4C29.6,26.5,21.3,31.1,12.1,35.2C3,39.3,-7,42.9,-15.6,40.7C-24.2,38.5,-31.5,30.5,-36.2,21.4C-40.9,12.3,-42.9,2.2,-41.7,-7.8C-40.4,-17.7,-35.8,-27.5,-28.3,-33.9C-20.8,-40.2,-10.4,-43.2,-1.1,-41.9C8.2,-40.6,16.5,-35,22.8,-28.4Z" width="100%" height="100%" transform="translate(50 50)" stroke-width="0" style="transition: all 0.3s ease 0s;" stroke="url(#sw-gradient)"></path>
              </svg>